<svg width="188" height="90" viewBox="0 0 188 90" fill="none" xmlns="http://www.w3.org/2000/svg">
<path d="M95.12 88.65L81.3101 88.58C78.5601 88.58 67.6801 67.91 67.6801 67.91L68.12 68.22L67.6801 67.89L67.88 67.28L81.65 26L86.1901 17.72L95.5901 2.46997L95.4501 28.22L95.12 88.65Z" fill="#41BC5C" stroke="white" stroke-miterlimit="10"/>
<path d="M95.17 88.34L108.98 88.51C111.73 88.51 122.98 68.09 122.98 68.09L122.53 68.4L122.98 68.07L122.79 67.45L109.79 25.94L105.39 17.58L96.27 2.16003L95.9401 27.92L95.17 88.34Z" fill="#0E3817" stroke="white" stroke-miterlimit="10"/>
<path d="M158.27 88.58L144.46 88.51C141.71 88.51 130.84 67.84 130.84 67.84L131.28 68.15L130.84 67.81L131.04 67.21L144.79 25.93L149.33 17.65L158.73 2.40002L158.6 28.15L158.27 88.58Z" fill="#F7EA00" stroke="white" stroke-miterlimit="10"/>
<path d="M158.32 88.27L172.13 88.44C174.88 88.44 186.13 68.02 186.13 68.02L185.69 68.32L186.13 68L185.94 67.38L172.94 25.87L168.54 17.51L159.39 2L159.07 27.75L158.32 88.27Z" fill="#E5BE00" stroke="white" stroke-miterlimit="10"/>
<path d="M29.4401 89L15.62 88.92C12.88 88.92 2 68.25 2 68.25L2.44006 68.57L2 68.23L2.20007 67.62L15.9501 26.35L20.54 18L29.9401 2.73999L29.8 28.5L29.4401 89Z" fill="#FF3833" stroke="white" stroke-miterlimit="10"/>
<path d="M29.54 88.69L43.3501 88.86C46.1001 88.86 57.3501 68.43 57.3501 68.43L56.9 68.74L57.3501 68.41L57.16 67.8L44.16 26.28L39.76 17.93L30.54 2.45996L30.2201 28.21L29.54 88.69Z" fill="#8F0400" stroke="white" stroke-miterlimit="10"/>
</svg>
